<svg width="48" height="48" xmlns="http://www.w3.org/2000/svg" viewBox="0 0 54 54">
  <title>Layer 1</title>
    <path d="m47.543069,42.535927l-10.010252,-10.010252c1.696653,-2.544979 2.544979,-5.429289 2.544979,-8.65293c0,-8.822595 -7.295608,-16.118203 -16.118203,-16.118203s-16.118203,7.295608 -16.118203,16.118203s7.295608,16.118203 16.118203,16.118203c3.223641,0 6.107951,-1.017992 8.65293,-2.544979l10.010252,10.010252c0.339331,0.339331 0.848326,0.339331 1.187657,0l3.562971,-3.562971c0.508996,-0.508996 0.508996,-1.017992 0.169665,-1.357322zm-34.442055,-18.832848c0,-6.107951 4.920294,-11.028244 11.028244,-11.028244s11.028244,4.920294 11.028244,11.028244s-4.920294,11.028244 -11.028244,11.028244s-11.028244,-4.920294 -11.028244,-11.028244z" />
</svg>